<?xml version="1.0" standalone="no"?><!DOCTYPE svg PUBLIC "-//W3C//DTD SVG 1.1//EN" "http://www.w3.org/Graphics/SVG/1.1/DTD/svg11.dtd"><svg t="1543917815448" class="icon" style="" viewBox="0 0 1024 1024" version="1.1" xmlns="http://www.w3.org/2000/svg" p-id="6074" xmlns:xlink="http://www.w3.org/1999/xlink" width="32" height="32"><defs><style type="text/css"></style></defs><path d="M512 297.36c70.72 0 133.44 34.208 172.544 86.976l27.36 7.328c-40.832-67.696-115.088-112.96-199.904-112.96-40.976 0-79.488 10.576-112.96 29.136l27.312 7.312A213.76 213.76 0 0 1 512 297.36z m140.944-12.144l14.976 12.144 4.624-18.192 16.768-9.792-16.768-9.792-4.624-18.192-14.976 12.144-19.632-1.456 7.52 17.312-7.52 17.296 19.632-1.472z m-259.904-40.72l-15.408-10.72-3.36 18.992-15.776 11.76 17.008 8.16 5.664 18 13.872-13.952 19.28-0.64-8.432-16.768 6.256-18.384-19.104 3.552z m144.272-26.24l-11.424-14.896-8.976 17.072-18.608 6.416 13.728 12.944-0.08 18.864 17.456-9.072 18.56 5.248-2.928-18.544 11.552-15.616-19.28-2.416z m208.816 117.184l-16.176-11.2-2.304 18.72-15.248 11.104 17.648 8.704 6.752 18.064 13.2-13.344 19.424 0.064-9.488-16.944 5.248-18.032-19.056 2.864z m210.16 141.024L145.008 259.072a37.312 37.312 0 0 0-45.712 26.4L41.312 501.824a37.312 37.312 0 0 0 26.4 45.712l811.28 217.376a37.312 37.312 0 0 0 45.712-26.4l57.968-216.336a37.312 37.312 0 0 0-26.384-45.712z m5.952 49.904l-53.136 198.32a28 28 0 0 1-34.288 19.792L81.552 531.92a28 28 0 0 1-19.792-34.288l53.136-198.32a28 28 0 0 1 34.288-19.792l793.248 212.544a28.016 28.016 0 0 1 19.808 34.304zM512 176.032c155.488 0 286.272 105.632 324.576 249.024l20.656 5.536C820.448 273.984 679.84 157.376 512 157.376a353.648 353.648 0 0 0-258.192 111.536l20.64 5.536A334.88 334.88 0 0 1 512 176.032z m85.648 532.816A213.76 213.76 0 0 1 512 726.64c-70.72 0-133.44-34.208-172.544-86.976l-27.36-7.328c40.832 67.696 115.088 112.96 199.904 112.96 40.976 0 79.488-10.576 112.96-29.136l-27.312-7.312z m-200.256 38.768l-14.864-12.112-4.576 18.16-16.64 9.776 16.64 9.776 4.576 18.16 14.864-12.112 19.456 1.44-7.456-17.264 7.456-17.264-19.456 1.44z m114.544 57.488l11.328 14.864 8.912-17.024 18.448-6.4-13.616-12.912 0.08-18.816-17.312 9.056-18.4-5.232 2.912 18.496-11.456 15.584 19.104 2.384zM276 687.776l15.216 12.288 3.6-18.48 15.872-9.984-16.848-9.904-5.408-18.448-14 12.352-19.216-1.424 8.192 17.536-6.464 17.568 19.056-1.504zM512 847.968c-155.472 0-286.272-105.632-324.576-249.024l-20.656-5.536C203.552 750.016 344.16 866.624 512 866.624c101.776 0 193.52-42.88 258.192-111.536l-20.624-5.52A334.992 334.992 0 0 1 512 847.968z m134.928-68.496l15.312 10.72 3.296-18.928 15.632-11.712-16.896-8.16-5.648-17.952-13.744 13.888-19.12 0.608 8.4 16.736-6.16 18.336 18.928-3.536z" fill="#d81e06" p-id="6075"></path><path d="M338.576 525.872c18.512 5.04 22.336 1.92 32.08-22.88 5.696 6.128 17.008 14.192 24.368 17.792-14.352 34.464-26.576 42.096-62.304 32.352l-57.392-15.648c-39.248-10.688-48.752-21.84-40.224-53.136l22.592-82.96 27.968 7.616-6.048 22.224 77.2 21.024 9.328-34.256-111.28-30.32 7.264-26.672 139.424 37.984-26.08 95.712-28.144-7.664 2.272-8.336-77.2-21.024-9.28 34.064c-3.12 11.488-0.832 13.312 19.712 18.896l55.744 15.232zM557.2 591.008c5.184 1.424 6.928-1.296 12.832-19.376 4.224 5.712 14.528 13.104 21.296 16.736-10.384 27.2-19.296 32.944-38.192 27.792l-20.544-5.616c-24.064-6.544-27.456-16.016-21.152-39.152l8.112-29.808-20.928-5.696c-11.376 33.68-24.672 51.152-78.352 46.672-0.176-7.408-3.92-19.968-7.6-26.928 43.104 5.376 50.656-4.112 58.352-27.264l-43.52-11.856 6.864-25.184 166.816 45.44-6.864 25.168-47.392-12.912-8.08 29.632c-1.696 6.304-1.104 7.056 4.624 8.624l13.728 3.728z m-87.808-112.032l-26.864-7.312 13.408-49.248 65.92 17.952a154.368 154.368 0 0 0-1.536-13.36l29.936-0.384c1.712 6.832 2.992 15.328 3.44 22.416l63.12 17.2-13.408 49.248-28.128-7.664 6.4-23.52-105.904-28.848-6.384 23.52z m3.072 12.768l6.704-24.624 93.488 25.472-6.704 24.624-93.488-25.472zM801.264 567.984c-14.368 22.144-31.072 41.056-49.504 56.128 1.184 11.664 4.16 19.024 8.592 20.24 3.712 1.008 8.448-7.648 15.536-29.952 4.4 7.936 12.128 16.816 18.592 21.552-13.904 35.008-24.72 40.4-43.792 35.216-12.224-3.328-20.064-14.016-24.368-29.52-10.608 6.064-21.888 10.944-33.408 14.56a169.76 169.76 0 0 0-13.392-27.504 134.16 134.16 0 0 0 42.784-18.384c-0.624-22.432 2.432-49.04 7.472-76.336l-48.144-13.104-4.8 17.6 45.36 12.352s-1.936 6.416-2.736 9.392c-10.864 37.632-16.416 54.4-22.464 59.104-5.552 4.272-10.32 4.96-16.16 4.56-5.248-0.448-13.072-2.368-21.584-4.688a65.68 65.68 0 0 0-0.208-26.32c-7.936 18.912-18.528 37.312-31.84 49.008-3.168-6.624-12.688-19.968-17.936-24.768 19.664-18.128 29.504-50.64 36.112-74.896l15.136-55.552 74.816 20.368c1.936-8.624 4.08-17.184 6.384-25.696l28.336 7.712a404.32 404.32 0 0 0-6.768 25.6l20.928 5.696a231.952 231.952 0 0 0-15.04-17.824l20.688-11.664c8.08 7.568 18.832 19.248 23.648 27.12l-11.872 7.12 19.616 5.344-7.216 26.464-56.448-15.376a387.04 387.04 0 0 0-5.664 44.208 196.08 196.08 0 0 0 23.92-31.68l25.424 13.92z m-131.264-5.12a376.16 376.16 0 0 1-10.576 29.328c5.408 2.08 10.176 3.584 13.136 4.384 2.4 0.64 4.224 0.544 6.208-0.912 2.08-1.808 4.896-9.2 10.304-27.632l-19.072-5.168z" fill="#d81e06" p-id="6076"></path></svg>