<?xml version="1.0" standalone="no"?><!DOCTYPE svg PUBLIC "-//W3C//DTD SVG 1.1//EN" "http://www.w3.org/Graphics/SVG/1.1/DTD/svg11.dtd"><svg t="1543916847542" class="icon" style="" viewBox="0 0 1406 1024" version="1.1" xmlns="http://www.w3.org/2000/svg" p-id="5438" xmlns:xlink="http://www.w3.org/1999/xlink" width="43.9375" height="32"><defs><style type="text/css"></style></defs><path d="M558.033318 814.187642c-13.716149-4.30866-27.55157-8.244598-41.267718-12.40417-0.357813 0.700716-0.715625 1.297071-1.073438 2.012696 13.716149 9.064586 30.056258 10.972919 45.919282 14.670316-0.954167-2.012696-2.027605-3.816668-3.578126-4.278842z m85.51721-560.945781c-25.881777 7.275523-51.763555 14.431775-77.645333 21.707297 0.357813 1.088347 0.596354 2.146876 0.954167 3.339585 25.881777-7.260614 51.763555-14.431775 77.645333-21.692389-0.357813-1.192709-0.715625-2.281055-0.954167-3.354493zM610.452863 824.072215c-15.743754-2.74323-30.771883-5.247918-46.21746-7.856968 3.339584 7.379885 39.597927 13.58197 46.21746 7.856968z m148.730767-35.542718l-4.770835 6.321356c0.596354 0.969076 1.490886 2.146876 2.146876 3.339584l0.715625-2.504688 12.642712-4.293751c-2.385417-7.260614-7.036981-5.844272-10.734378-2.862501zM1057.718602 327.309068c2.862501 8.706773 8.826044 13.000524 18.0099 13.000524a36.839788 36.839788 0 0 0 32.799488-22.780735c5.844272-15.1474-3.578126-29.936987-18.964068-30.056258-25.881777-0.238542-39.359385 16.832101-31.84532 39.836469z m-131.19795 317.290315c2.504688-3.235222 3.339584-6.321356 0.238541-8.840953-0.715625-0.596354-4.770835 1.803972-6.202085 3.578126a338.669617 338.669617 0 0 1-92.971638 82.788888 334.823132 334.823132 0 0 1-160.300041 48.155611 358.394036 358.394036 0 0 1-50.451575-1.774154c-16.220837-1.654883-32.441675-3.593035-48.125793-8.706773-7.156252-2.400326-14.551045-4.070118-22.06511-6.202085-1.490886 6.067905 0.954167 8.453322 6.321356 10.123115 40.432823 11.807816 81.581271 17.428455 123.743521 13.9696q153.680508-12.53835 249.812824-133.091375zM553.978109 279.973444c-3.816668 0.477083-7.752606 0.342904-11.330732 1.29707-26.478132 7.275523-52.836993 14.685225-79.315124 22.080019a28.028653 28.028653 0 0 0-5.605731 3.086133c0.357813 0.715625 0.834896 1.31198 1.192709 2.027605l95.29742-26.835944a9.019859 9.019859 0 0 0-0.238542-1.654883zM707.002627 734.261254c7.752606-0.581445 15.266671-3.101042 21.110943-0.954166s9.66094 9.079494 15.028129 14.670316c1.073438-5.963543 2.146876-10.719469 2.8625-15.624483 0.477083-4.040301 2.146876-6.559898 6.202085-7.991148 4.651564-1.669792 9.183857-4.17448 14.431775-6.544989a41.282628 41.282628 0 0 0-5.247918-3.220313c-10.436201-3.593035-16.220837-10.436201-15.266671-21.960748a68.14839 68.14839 0 0 0-0.834896-7.454429c-3.220313 3.220313-5.605731 5.113738-7.454429 7.454429-5.128647 6.321356-11.09219 8.945315-19.083338 5.605731-2.862501-1.1778-6.202085-1.31198-10.4362-2.027605 2.504688 5.367189 4.472657 10.033661 6.91771 14.551045a8.61732 8.61732 0 0 1-0.477084 10.152933c-2.862501 3.697397-5.009376 8.22969-7.752606 13.224157z m107.105236-31.517325c1.490886-5.963543 1.31198-11.345641 3.816667-14.431775 2.623959-3.354493 7.871877-4.472657 13.71615-7.648244-12.165628-2.623959-16.399744-9.765302-15.982296-21.453847-6.321356 10.734378-15.028129 10.972919-25.166152 7.752607 7.036981 9.288219 6.082814 17.652088-1.192709 26.463222 11.211461-4.472657 18.725526-0.477083 24.80834 9.318037z m81.998718-200.270689c-0.119271 0-0.238542 0-0.238541 0.119271-7.036981-3.101042-13.954691-1.893425-21.110943 0.238541-16.57865 4.890105-33.276571 9.183857-49.974492 13.417973-5.725001 1.490886-5.844272 4.651564-4.17448 9.899481 5.605731-1.789063 10.972919-3.101042 16.220837-5.113738 3.935939-1.56543 5.725001-0.730534 6.202085 4.472657-12.284899 3.220313-24.689069 6.559898-37.272145 9.66094-1.073438 0.238542-2.504688-1.192709-5.367189-2.489779 6.321356-2.74323 10.972919-4.770835 15.505213-6.813348-1.31198-4.770835-2.623959-6.440627-5.725002-5.963543a16.876827 16.876827 0 0 0-3.816667 1.192708 94.730883 94.730883 0 0 1-9.66094 3.697397c-17.055734 5.009376-34.171102 9.929299-51.167201 14.834314 0 0.700716 0.119271 1.490886 0.119271 2.131966 7.871877 0.372721 15.863025 0.611263 23.019277 0.954167 8.945315-4.293751 17.055734-10.138023 29.10209-5.009376-17.532817 5.143556-34.111467 10.152932-50.809388 14.789587-21.826568 6.082814-43.772407 11.688545-65.598975 17.89063-18.0099 5.128647-36.019801 10.853649-53.91043 16.235746-7.036981 2.131967-14.073962 5.471551-21.110943 5.829364-11.450003 0.477083-21.349485 5.128647-31.84532 8.840952-11.09219 3.935939-22.363287 6.91771-33.634384 10.361657-2.146876-4.293751-2.027605-6.321356 2.266146-7.454429 18.248442-5.113738 36.258343-10.734378 54.626056-15.624484 16.220837-4.398113 32.560946-8.09551 48.781783-12.284898 2.027605-0.477083 3.697397-2.504688 5.605731-3.801759a9.988935 9.988935 0 0 0-0.834896-1.490886c-3.816668 0.357813-7.991148-0.357813-11.211461 1.088347-6.202085 2.74323-14.431775-0.372721-19.202609 7.454429-1.31198 2.042514-8.22969 3.339584-9.303128 2.146875-3.816668-4.293751-7.036981-1.31198-10.257294-0.477083-32.441675 9.079494-64.88335 18.367713-97.325025 27.447207-5.247918 1.490886-10.138023 2.74323-10.853648 9.52676a36.124163 36.124163 0 0 0 3.816667-0.715625c9.303127-2.623959 18.606255-5.367189 27.909382-8.110419 5.963543-1.654883 8.110419-0.238542 8.945315 4.174481 2.981772 15.281579 6.679168 30.428979 10.138023 46.217459 17.413546-5.009376 33.1573-9.288219 48.901055-13.954691 3.697397-1.073438 5.844272-0.357813 8.229689 2.74323 8.110419 10.734378 16.57865 21.110943 24.927611 31.740959 6.082814 7.752606 6.202085 7.752606 14.073962 1.490886 10.138023-8.09551 20.514589-15.982296 30.41407-24.331257 3.578126-2.981772 6.202085-3.458855 10.257294-0.939258 7.454429 4.636655 15.385941 8.811135 23.138548 12.985616a36.452158 36.452158 0 0 0 6.679168 2.027604c-1.490886-11.569274-11.450003-13.954691-18.725526-19.083338 8.706773-3.339584 16.57865-6.440627 24.450527-9.541669a14.387048 14.387048 0 0 0-0.834896-2.012696c-8.34896 2.266146-16.57865 4.875197-24.92761 6.783531-2.862501 0.596354-6.798439 0.596354-8.945315-0.954167-5.367189-3.563217-9.064586-2.370508-13.596878 1.490885-11.09219 9.288219-22.542193 17.994992-34.290374 27.41739-5.009376-6.440627-9.66094-12.284899-14.908858-18.964067 60.947411-17.294275 120.761749-34.290373 181.768797-51.644284-1.073438 8.706773-1.908334 16.101567-2.862501 23.854173-2.862501-0.238542-5.009376-0.342904-7.156252-0.596355-12.642712-1.490886-25.345059-3.101042-37.928135-4.293751-2.623959-0.223633-6.440627 0.238542-7.871877 1.908334-1.908334 2.146876-1.908334 5.963543-2.623959 9.079495-4.293751-1.684701-12.523441 1.297071-13.239065 5.725001 2.266146-0.13418 4.472657-0.372721 7.454429-0.611263-4.472657 8.125328-7.871877 15.997205-12.761983 22.795644-4.055209 5.710093-2.623959 9.646031 2.146876 14.416865 6.202085-11.330732 12.40417-22.363287 18.486984-33.515112 6.559898-11.927086 6.559898-11.792907 19.798963-10.018753 13.417972 1.789063 26.955215 3.220313 41.029177 4.905014 0.596354-3.354493 1.31198-5.963543 1.490886-8.721682 1.192709-10.123115 2.266146-20.276047 3.458855-30.41407 1.789063-15.863025 1.908334-15.728845 17.055733-20.037505 12.40417-3.443946 24.80834-7.141343 37.689593-10.853648-1.490886-5.233009-2.74323-9.899482-4.055209-14.551046a11.330732 11.330732 0 0 1-2.027605-1.192708c-4.055209 10.436201-14.073962 12.523441-20.633859 17.189913-3.220313-0.372721-5.367189-1.192709-7.156252-0.715625-7.752606 2.012696-15.385941 4.159571-23.019277 6.679168-1.669792 0.581445-3.935939 2.504688-4.055209 3.92103-0.357813 4.17448-2.74323 5.247918-6.082814 6.202084-29.936987 8.34896-59.873974 16.936463-89.81096 25.419603-17.294275 4.875197-34.46928 10.003844-51.644284 14.908858l0.417448 1.714519a24.927611 24.927611 0 0 0 6.082814-0.357813l97.205754-27.551569 41.50626-11.807816c1.490886 10.853649 0.954167 11.450003-8.110419 14.073962-9.541669 2.74323-19.083338 5.48646-28.625007 8.125328q-70.071632 20.022596-140.262536 39.94083c-9.183857 2.623959-10.257294 2.146876-14.431774-7.454429 13.417972-3.816668 26.597403-7.752606 39.836468-11.554365a18.188807 18.188807 0 0 0-0.477083-2.266146 52.956263 52.956263 0 0 0-7.752606 0.700716c-10.257294 2.74323-20.395318 5.844272-30.652612 8.468232-2.146876 0.477083-5.605731 0.238542-6.679169-1.1778-2.504688-3.115951-4.770835-2.87741-7.871877-1.923243-13.239066 3.935939-26.597403 7.648244-39.955739 11.345641a31.45769 31.45769 0 0 1-5.963543 0.342904 13.865238 13.865238 0 0 0-0.477084-2.146876 31.308602 31.308602 0 0 1 5.48646-2.266146c5.844272-1.654883 11.807816-2.981772 17.413546-5.009376a6.425718 6.425718 0 0 0 1.490886-0.834896c0.119271 0 0.119271-0.119271 0.238542-0.119271 1.490886-1.073438 2.623959-2.504688 3.935938-3.697397a0.432357 0.432357 0 0 0 0.357813-0.119271c0.119271 0 0.119271 0 0.238542-0.119271 1.908334 0.238542 3.935939 0.715625 5.844272 0.834896h0.357813a5.575913 5.575913 0 0 0 2.027604-0.238542c13.716149-3.578126 27.432299-7.633335 41.148448-11.688544a21.289849 21.289849 0 0 0 4.651564-2.862501c-0.238542-0.715625-0.596354-1.31198-0.834896-2.027605-5.725001 1.669792-11.330732 3.220313-17.055734 4.890106-12.046357 3.712306-24.092714 7.454429-36.139071 10.972919h-0.357813l-0.238542 0.238542-29.996622 7.215887c-1.073438-3.578126-1.908334-6.798439-2.981771-10.4362 18.486984-5.247918 36.139072-10.436201 53.791159-15.371033 17.055734-4.666473 33.634384-10.987828 50.809388-15.520121a16.519015 16.519015 0 0 0-8.945315-0.477083c-29.936987 8.468231-59.754703 17.055734-89.691689 25.643235-2.146876 0.596354-4.472657 0.954167-7.036981 1.490886-1.073438-3.697397-1.908334-6.798439-2.862501-10.257294 3.220313-1.058529 5.844272-2.012696 8.468231-2.74323 28.98282-8.214781 58.144546-16.399744 87.067731-24.689069q100.366432-28.446101 200.613593-57.011473c2.027605-0.581445 5.725001-1.490886 6.082814-1.058529 2.385417 4.755926 6.91771 1.297071 10.972919 4.636655-1.669792-7.036981-2.981772-12.284899-4.17448-17.652088 1.490886-0.477083 2.504688-0.834896 3.578126-1.177799 13.83542-4.472657 27.790111-8.840953 41.625531-13.253975a0.432357 0.432357 0 0 1 0.357813 0.119271 0.163997 0.163997 0 0 1-0.238542 0h0.357813a28.98282 28.98282 0 0 0 11.927086-2.251238c0.119271 0 0.119271-0.13418 0.119271-0.13418a12.389261 12.389261 0 0 0 3.697397-2.60905 7.797333 7.797333 0 0 0 1.908333-3.458855c-6.440627 1.416342-13.119795 2.847592-19.798963 4.278843 0.477083 1.073438 1.192709 2.638868 1.789063 4.17448zM503.109086 736.184497c-1.490886 7.737697-1.192709 8.09551 8.587502 11.315823 0.477083-1.490886 1.073438-2.847592 2.146875-6.067905 2.146876 3.563217 3.458855 5.829363 5.128648 8.572593 0.715625-7.856968-2.862501-10.83874-15.863025-13.820511z m23.377089 13.417972c-0.834896-1.490886-1.490886-3.101042-2.385417-4.651563-0.834896 0.477083-1.490886 0.954167-2.385418 1.490885 0.357813 2.027605 0.119271 5.367189 1.192709 5.963544 6.798439 3.101042 13.83542 5.605731 20.75313 8.34896 0.238542-0.462175 0.357813-1.073438 0.596355-1.490886-1.669792-0.834896-3.339584-1.490886-5.844273-2.74323 2.504688-0.834896 3.935939-1.297071 5.605731-1.789063-4.770835-5.247918-13.239066-7.156252-17.532817-5.009376zM658.161208 746.784695c1.490886-5.963543 1.490886-11.211461 4.05521-14.431774s7.633335-4.293751 12.40417-6.559898c-4.472657-2.623959-9.422398-4.17448-11.688545-7.454429-2.385417-3.593035-2.146876-8.840953-3.578126-15.863025-5.963543 11.673636-14.551045 12.165628-26.120319 7.737698 7.036981 10.152932 8.587502 18.486984 0.834896 27.313027 10.734378-4.040301 18.129171 0.238542 24.092714 9.303128zM325.693676 340.905946c6.559898-17.055734 12.40417-34.46928 20.037505-51.152292s16.817192-32.218042 25.166152-48.066158c-1.789063-0.477083-4.17448-0.954167-7.454429-1.684701-4.055209 7.648244-8.22969 15.266671-12.761982 23.854173a4.472657 4.472657 0 0 0-1.669792 1.490886c-9.124221 21.438938-18.188807 42.758605-27.134122 64.22736-2.027605 4.905014 0.238542 8.587502 3.816668 11.330732z m-97.325025 70.071632c1.192709 2.87741 1.908334 4.293751 2.504688 5.725002 10.615107-2.266146 10.615107-2.266146 10.436201-12.761982 0-2.728321 0.238542-5.367189 0.238542-8.110419 0.596354 0 1.192709-0.104362 1.908333-0.104362 0.238542 5.48646 0.596354 11.077281 0.954167 17.040824 1.669792-0.238542 2.74323-0.357813 3.697397-0.581445 23.49636-6.694077 46.873449-13.417972 70.489081-20.052414 23.019277-6.440627 45.680741-13.58197 68.819288-19.545513 7.633335-2.042514 15.266671-4.472657 22.900006-6.574806q91.600023-26.120319 183.200046-52.002097a57.667463 57.667463 0 0 1 8.826044-1.192708c-1.073438 1.31198-2.027605 2.74323-3.101042 4.055209-1.31198 0.954167-2.862501 2.74323-4.05521 2.504688-6.082814-1.31198-11.211461 1.326888-16.697921 3.101043-7.871877 2.400326-16.399744 3.220313-24.211985 5.725001-18.844796 5.725001-37.451051 11.927086-56.176577 18.129171-11.688545 3.935939-23.377089 8.125328-35.065634 12.180537 15.863025-2.981772 31.308602-7.036981 46.634908-11.464911 23.377089-6.559898 46.754179-13.596878 70.071633-20.141868 28.863549-8.125328 57.727098-15.877934 86.590647-23.854172 6.798439-1.923243 13.417972-4.472657 20.156776-6.694078l-0.238542 0.119271c18.964067-4.472657 37.451051-10.436201 55.938035-16.399743-0.119271-0.715625-0.357813-1.490886-0.477084-2.266147l-18.725525 1.073438c0-0.119271-0.119271-0.357813-0.119271-0.477083q88.856793-26.120319 177.832858-52.345001a3.607944 3.607944 0 0 1 0.238541 0.939258c-3.816668 2.281055-7.454429 4.547202-11.330732 6.679169-23.734902 3.339584-44.965116 14.789587-67.74585 21.826568 50.332304-12.642712 100.545338-25.523965 150.400559-39.597927s99.710442-29.221362 149.804205-43.99604c2.146876 7.022072 4.472657 14.774678 6.798439 22.527284a13.253975 13.253975 0 0 1 1.908334 0.834897c1.490886-2.012696 4.651564-4.472657 4.293751-5.963544-2.623959-11.09219-5.963543-22.06511-9.303128-33.515112-40.552094 11.450003-80.507833 22.795644-118.913051 33.634383-11.211461-20.49968-26.001048-35.781259-39.955739-51.644284-7.156252 4.890105 1.192709 10.138023-1.789063 15.505213 5.128647 0.491992 9.899482 0.969076 13.83542 1.490885-2.385417 2.012696-5.128647 4.159571-7.752606 6.306447 0.357813 0.596354 0.834896 1.073438 1.192709 1.684701 1.31198-0.372721 2.623959-0.611263 4.890105-1.088346-3.578126 10.033661 4.472657 15.863025 7.991148 23.49636-1.490886 0.596354-2.623959 1.073438-3.816668 1.490885 7.871877 9.899482 7.036981 13.119795-5.128647 17.294276-3.220313 1.207617-6.559898 2.027605-9.780211 3.101042 0.119271-0.715625 0.119271-1.416342 0.238542-2.131967-2.862501-0.477083-5.963543-2.027605-8.587502-1.490885-10.257294 2.504688-20.395318 5.48646-30.533341 8.721682-3.816668 1.192709-6.202085 0.581445-8.826044-2.638868a334.092598 334.092598 0 0 0-103.050026-83.966688c-15.385941-8.110419-31.487508-14.774678-48.185429-22.527285-0.357813 2.847592-0.357813 3.935939-0.477084 4.875197-0.238542 1.192709-0.477083 2.385417-0.834896 3.816668 58.144546 21.602935 107.224506 55.714402 147.597694 104.242734-14.551045 3.458855-27.193757 7.871877-40.253916 11.450003-29.340632 8.006057-58.561994 16.817192-87.783356 25.345059-7.871877 2.266146-15.863025 4.189389-23.734902 6.202085-2.623959 0.715625-4.472657 0.954167-5.367189-3.086134-2.74323-14.908858-6.202085-29.713354-9.422398-45.099295-16.57865 4.666473-31.606779 8.706773-46.515637 13.119795-4.293751 1.31198-7.036981 0.715625-9.899482-3.086134-7.752606-10.436201-16.101567-20.529497-24.092714-30.667521-5.247918-6.679168-5.247918-6.679168-12.165628-1.192708-10.257294 8.006057-20.633859 15.863025-30.652612 24.092714-3.458855 2.862501-6.082814 2.862501-9.780211 0.715625-7.454429-4.472657-15.028129-8.572593-22.661464-12.642711a47.559257 47.559257 0 0 0-6.202085-2.266147c0.834896 11.450003 11.09219 13.417972 17.652088 18.978977-8.22969 3.086134-15.505212 5.829363-22.900006 8.572593l0.715625 2.161784c7.752606-2.161784 15.505212-4.666473 23.37709-6.336264 3.101042-0.596354 7.156252-0.477083 9.66094 1.192708 4.770835 3.220313 7.991148 2.161784 11.927086-1.058529 11.09219-8.945315 22.363287-17.652088 34.111467-26.970124 4.890105 6.082814 9.303127 11.807816 14.551045 18.367713L497.801532 263.141343c0.954167-8.110419 1.789063-15.266671 2.74323-23.019277 2.74323 0.238542 4.890105 0.372721 6.91771 0.611263 12.284899 1.416342 24.450527 2.981772 36.735426 4.293752 8.587502 0.939258 11.688545-2.87741 9.183857-10.868558 5.844272 1.923243 10.436201-0.238542 14.431774-4.875196-2.266146 0-4.472657 0-7.454429 0.104362 4.293751-7.752606 7.752606-15.1474 12.40417-21.826569 3.697397-5.48646 3.101042-9.422398-2.146876-13.716149-7.036981 12.65762-14.193233 24.927611-20.991672 37.570322-2.266146 4.17448-4.472657 5.844272-9.541669 5.009377-13.716149-2.027605-27.432299-3.220313-41.148448-5.009377-4.055209-0.477083-5.963543 0.372721-6.321355 4.770835-0.954167 10.615107-2.623959 21.110943-3.697397 31.621688-1.490886 15.982296-1.490886 15.982296-17.055734 20.141867-12.046357 3.235222-23.973444 6.694077-36.496884 10.257294 1.490886 5.143556 2.74323 9.541669 4.17448 14.565954 2.504688-1.803972 5.605731-2.87741 5.725002-4.30866 0.715625-4.875197 4.472657-5.113738 7.752606-6.91771 5.009376-2.74323 9.422398-4.472657 15.505212-4.472657s12.523441-3.220313 18.725526-4.770835c4.055209-1.058529 8.110419-1.490886 8.110419-7.454429 0-1.058529 2.504688-2.60905 4.17448-3.101042 16.57865-4.755926 33.276571-9.422398 49.974492-14.073962q44.010949-12.344534 88.49898-24.80834a18.173898 18.173898 0 0 0-1.311979-2.370508c-46.515637 12.40417-93.031274 24.912702-140.620348 37.793955 1.31198-5.128647-1.490886-10.436201 5.844272-12.523441q83.907053-23.257818 167.933376-46.99272c8.34896-2.266146 9.66094-1.416342 13.417972 7.528973l-38.64376 11.077281c0.119271 0.715625 0.238542 1.326888 0.357813 2.027605a34.290373 34.290373 0 0 0 7.036981-0.477083c9.422398-2.504688 18.725526-5.128647 28.028653-7.871877 4.055209-1.192709 7.752606-2.489779 10.734378 2.281055 0.596354 0.954167 3.935939 0.700716 5.725001 0.223633 12.761982-3.443946 25.345059-7.156252 38.047406-10.615107a30.652612 30.652612 0 0 1 6.440626-0.477084 14.610681 14.610681 0 0 1 0.238542 2.266147c-26.120319 9.899482-54.148972 14.193233-80.388562 23.854173 0.238542 0.954167 0.596354 1.908334 0.834896 2.743229 26.716673-7.454429 53.433347-14.908858 80.030749-22.363286 5.128647 9.52676 4.890105 10.018753-4.651563 12.642711-21.468755 5.963543-42.81824 11.927086-64.286996 17.994992a41.491352 41.491352 0 0 0-4.890105 1.923242 24.987246 24.987246 0 0 0 0.715625 2.892319c26.001048-6.097723 51.405742-14.670316 77.883874-21.125852 1.073438 3.578126 2.027605 6.559898 2.981772 10.152932-3.339584 1.058529-5.963543 1.893425-8.587503 2.60905-26.001048 7.275523-51.882826 14.431775-77.883874 21.707298l-202.164114 56.534389a11.479821 11.479821 0 0 1-5.60573 0.596354 90.780036 90.780036 0 0 1-10.257294-4.472657c1.490886 6.78353 2.74323 11.927086 4.055209 17.413546-43.891678 12.642712-87.306272 25.046881-131.794304 37.793955 0.357813-7.976239 0.596354-14.312504 0.834896-20.633859-0.715625-0.119271-1.490886-0.357813-2.266147-0.462175-2.146876 6.187176-4.770835 12.150719-6.082814 18.591346-0.834896 3.816668-2.266146 5.367189-5.844272 6.321356-10.615107 2.74323-21.230214 5.963543-31.845321 8.945314-3.578126 1.088347-7.275523 2.027605-11.450003 3.220314a103.855105 103.855105 0 0 1 0.477084-11.211462c2.504688-15.863025 4.472657-31.72605 7.991148-47.335624a387.272494 387.272494 0 0 1 72.039601-153.024518c7.275523-9.422398 15.385941-18.129171 22.900006-27.313027 1.669792-2.027605 2.385417-4.905014 3.458855-7.290432-0.715625-0.462175-1.490886-1.073438-2.146875-1.490886-1.31198 1.669792-2.504688 3.354493-3.935939 4.905015a394.100751 394.100751 0 0 0-79.672937 127.485644c-4.890105 12.761982-8.587502 25.881777-13.119795 38.763031-0.715625 2.161784-3.101042 3.578126-5.367189 6.097723 0.238542 2.981772 1.490886 7.454429 0.834896 11.792906-2.504688 17.786268-6.082814 35.438355-8.110418 53.328985-0.834896 7.260614-3.816668 9.183857-10.734378 9.049677 1.669792-32.560946 6.91771-64.108089 19.798963-94.104712 0.119271 3.339584 0.119271 6.559898 0.238542 9.79512 3.339584-8.22969 6.679168-16.399744 10.436201-25.643236-3.220313 1.893425-5.009376 3.086134-6.79844 4.159572a6.753713 6.753713 0 0 1 0.954167-5.35228 83.355425 83.355425 0 0 0 14.908858-32.695126c0.954167-4.293751 0.715625-9.183857 2.623959-12.881253 5.844272-10.83874 10.138023-22.363287 17.652088-32.441675 12.40417-16.57865 24.450527-33.515113 36.496884-50.451575 2.385417-3.220313 3.935939-7.036981 6.082814-10.436201a22.706191 22.706191 0 0 1 3.935939-3.697397c1.789063-1.56543 3.101042-3.831576 4.890105-5.382097s4.472657-2.027605 6.321356-3.563217c15.1474-13.239066 29.400268-27.790111 45.740376-39.269932 21.110943-14.804496 43.533865-27.80502 66.076059-40.447732 11.330732-6.440627 23.019277-14.193233 37.808864-10.138023-1.31198-1.192709-2.504688-2.266146-4.293752-3.935939 11.09219-3.816668 21.588026-7.275523 31.964592-11.077281s21.110943-4.770835 31.606779-7.454429a258.713412 258.713412 0 0 1 34.469279-5.605731c11.569274-1.31198 23.257818-2.131967 34.946363-2.504688s23.377089-0.357813 35.065634 0.372722 23.734902 2.027605 35.423447 3.801758 23.019277 3.935939 34.290373 6.574807 22.542193 5.963543 33.634384 9.541669 21.945839 7.871877 32.680216 12.389261 21.110943 9.675849 33.03803 15.028129c0.238542-6.679168 0.477083-12.642712 0.715625-18.472075 0.834896 0 1.669792 0.104362 2.504688 0.104362-0.238542 4.890105-0.119271 9.79512-0.596354 14.670316-0.477083 3.935939 1.073438 6.097723 4.472657 8.244598 18.248442 11.927086 36.496884 24.092714 54.268243 36.720517 8.34896 5.963543 15.863025 13.119795 23.854173 19.798964 0.119271-0.581445 0.357813-1.192709 0.477083-1.789063a20.171685 20.171685 0 0 1 5.367189 0.834896 55.162774 55.162774 0 0 1 5.725002 3.354493l-0.119271 0.104362h0.238541c1.073438 1.669792 2.266146 3.458855 3.339585 5.128647-1.073438 1.490886-2.027605 2.862501-2.981772 4.472657 3.101042 3.086134 6.082814 6.067905 9.064586 8.945315 0.834896-0.238542 1.669792-0.372721 2.504688-0.611263 0.596354-6.202085 1.31198-12.523441 2.027604-19.381515-2.981772 0.238542-5.367189 0.596354-7.633335 0.715625-0.357813 0-0.715625 0.119271-1.073438 0.119271-1.789063 0.119271-3.458855 0.357813-5.009376 0.491992 0 0 0-0.13418-0.119271-0.13418 4.055209-2.74323 8.110419-5.590822 12.523441-8.572593-2.504688-1.326888-4.472657-1.908334-5.48646-3.115951-4.770835-4.890105-8.826044-10.615107-13.83542-15.1474a423.411566 423.411566 0 0 0-128.216178-77.526061C747.196908 5.903908 685.056788-3.757032 620.829428 1.356706l-37.451051 2.87741c-0.477083 0-0.954167-0.477083-1.789063-0.849805 1.490886-0.462175 2.623959-0.834896 4.17448-1.490886-9.422398-4.070118-16.936463 0-24.689069 2.981772-2.981772-1.088347-8.110419-1.490886-8.229689-0.969076-1.490886 5.844272-7.156252 5.48646-10.436201 8.229689-5.247918 4.293751-8.826044 2.638868-11.450003-2.146875-4.651564 0.849805-9.303127 0.715625-13.000524 2.385417a102.87112 102.87112 0 0 0-18.0099 10.436201c-5.128647 3.697397-8.468231 10.242385-16.697921 6.91771-7.752606-3.220313-14.073962 0.834896-20.514589 4.636655-7.454429 4.472657-15.028129 8.468231-22.363287 12.881253a92.82255 92.82255 0 0 0-13.954691 9.318036c-4.770835 4.159571-8.34896 9.780211-13.000524 14.059053-5.725001 5.143556-12.165628 9.318036-18.129171 14.088871-25.762507 20.976763-50.690117 43.041873-71.681789 69.05783-5.009376 6.202085-9.303127 12.881253-13.954691 19.381515-1.908334 2.370508-3.935939 4.636655-5.844273 7.022072-4.17448 5.725001-8.22969 11.450003-12.404169 17.175005l2.504688 0.715625c-0.238542 1.490886 0.119271 3.458855-0.715625 4.472657-1.192709 1.669792-3.339584 2.504688-4.890106 4.05521-3.101042 3.101042-5.725001 6.559898-8.945315 9.422398-1.192709 1.088347-3.697397 1.192709-5.367188 0.954167a44.413488 44.413488 0 0 1-7.454429-2.60905c-0.238542 0.581445-0.596354 1.1778-0.834896 1.774154 0.596354 1.684701 1.192709 3.339584 1.789062 4.890105-3.935939 0.596354-7.454429 1.073438-10.853648 1.669792 0.119271 0.715625 0.119271 1.31198 0.238542 2.027605 4.651564 0.238542 9.183857 0.357813 14.312503 0.611263-7.871877 4.636655-14.789587 8.691864-22.661464 13.417972a14.521228 14.521228 0 0 1-6.559897 13.224157c-1.31198 0.969076-1.073438 5.725001-0.119271 8.110419s4.890105 3.697397 5.844272 6.202085c0.834896 2.146876 0.477083 6.082814-0.954167 7.633335-2.027605 2.027605-5.725001 2.638868-8.229689 3.593035a6.366082 6.366082 0 0 1 1.311979 0.596354c-2.74323 3.443946-6.559898 6.187176-7.454429 9.646031a69.549822 69.549822 0 0 0-1.789063 18.621164 27.029759 27.029759 0 0 0 3.101043 10.719469c1.490886 3.101042-1.908334 6.679168 2.027604 9.91439 1.31198 1.058529-1.31198 6.78353-2.027604 10.361657-2.027605 10.853649-4.17448 21.707297-5.963544 32.575854-0.238542 1.654883 0 4.398113 0.954167 5.113739 4.293751 2.981772 3.339584 6.440627 2.146876 10.4362l-5.903908-1.803972c-0.238542 7.618426-0.715625 14.536137-0.715625 21.453847 0 4.890105-1.490886 8.22969-7.036981 8.840953-3.935939 0.342904-5.48646 2.847592-4.17448 7.141343 6.082814-0.596354 13.119795-0.462175 15.385941-10.018753z m680.440277-279.213091c3.578126 2.981772 7.991148 5.128647 11.927087 7.767515 0.596354-0.969076 1.192709-1.923243 1.908334-2.87741-4.472657-2.370508-11.807816-3.816668-12.761983-7.275523-2.266146-7.260614-8.34896-9.422398-13.000524-12.985615-61.543766-47.887252-131.376856-75.602819-208.724011-82.609982-80.865646-7.260614-157.198998 9.198765-228.522975 48.43888a379.728612 379.728612 0 0 0-69.296372 48.901054c-1.31198 1.1778-1.669792 3.563217-2.504688 5.35228a11.927086 11.927086 0 0 1 1.908334 0.849805c0.834896-0.611263 1.669792-1.326888 2.504688-1.923243 11.211461-8.826044 22.06511-18.248442 33.634383-26.478132a368.248792 368.248792 0 0 1 36.258343-22.661464 347.12294 347.12294 0 0 1 38.524489-18.636072c12.642712-5.113738 25.166152-10.83874 38.524489-14.297595 31.487508-8.244598 63.094287-15.863025 95.774503-15.758663 24.331256 0.13418 49.020325 0.13418 73.053404 3.458855 75.617728 10.436201 142.29014 41.744802 200.732864 90.765127z m-281.777415-19.679693c1.490886 9.556578-4.472657 12.881253-13.417972 15.997205 9.66094 2.60905 13.239066 7.454429 12.881253 15.967387 5.367189-7.022072 11.807816-7.454429 19.560422-5.367189-6.202085-6.91771-4.293751-13.239066 0.238541-20.261138-8.468231 4.159571-13.596878-0.238542-19.381515-6.336265z m33.634384-19.679692c12.881253 0.477083 26.120319 1.073438 39.836468 1.490885 0.238542-1.654883 0.477083-3.697397 0.715625-6.559897-11.688545-0.819987-23.019277-1.490886-34.290373-2.728321-5.725001-0.477083-8.587502 0.819987-6.202085 7.737697zM455.579646 324.565838q86.590647-24.15235 173.062024-48.423971c-0.238542-0.834896-0.357813-1.654883-0.596355-2.504688-7.871877 1.789063-15.743754 3.354493-23.49636 5.48646-49.974492 13.850329-99.889348 27.924291-149.923475 41.878982 0.357813 1.192709 0.715625 2.370508 0.954166 3.563217zM941.42951 162.596005c7.454429 9.422398 15.266671 18.844796 23.138547 28.028653 1.073438 1.31198 3.339584 1.490886 5.128647 2.400326 0.477083-0.730534 0.834896-1.326888 1.31198-2.027605-4.293751-5.024285-8.587502-10.138023-13.000524-15.043037-1.789063-1.908334-4.17448-3.220313-5.844273-5.128648-3.578126-4.055209-6.91771-8.22969-10.4362-12.404169v-0.223633c-0.119271 0-0.119271 0-0.238542-0.13418s-0.119271-0.238542-0.238542-0.342904c-0.477083-0.849805-0.834896-1.56543-1.311979-2.281055l-0.119271-0.119271a28.32683 28.32683 0 0 0-3.816668-4.651563 0.119271 0.119271 0 0 1-0.119271-0.119271c-0.715625-0.596354-1.490886-1.297071-2.027604-1.774154-0.119271-0.13418-0.238542-0.13418-0.357813-0.238542a15.713936 15.713936 0 0 0-1.789063-1.207618 5.814455 5.814455 0 0 0-0.834896-0.357812l-1.490886-0.700717a3.771941 3.771941 0 0 0-1.192708-0.238541 2.504688 2.504688 0 0 0-0.954167-0.238542 5.009376 5.009376 0 0 0-1.908334 0.104362c4.17448 6.097723 8.945315 10.615107 16.101567 12.165628 0 0.13418 0.119271 0.13418 0.11927 0.238542a0.119271 0.119271 0 0 0 0.119271 0.119271c-0.357813 1.490886-1.073438 3.354493-0.357812 4.17448z m23.675266 3.429037c0.238542-0.238542 0.357813-0.596354 0.596354-0.834896-1.490886-2.74323-2.266146-6.321356-4.472657-8.214781-1.908334-1.490886-3.101042-7.886786-8.22969-2.504688 4.055209 3.801759 7.991148 7.618426 12.046358 11.554365zM323.188988 359.154388c-1.192709-4.875197-2.266146-9.899482-3.458855-14.789587-3.697397 11.330732-3.697397 11.330732 3.458855 14.789587z m523.47982 180.9339L665.615637 591.613301a12.120902 12.120902 0 0 0 0.477084 2.027605 74.261021 74.261021 0 0 0 9.183856-0.954167c5.605731-1.31198 11.211461-3.086134 16.817192-4.651563q73.8883-20.872401 147.597694-41.983344c2.74323-0.834896 5.128647-2.74323 7.752606-4.159572-0.357813-0.730534-0.596354-1.326888-0.834896-1.803972z m-269.850329-417.209481a50.481393 50.481393 0 0 1-10.257294-6.902801c-1.490886-1.207617-1.789063-3.697397-2.74323-5.620639-0.834896 0.596354-1.490886 1.31198-2.385417 1.923242a24.390892 24.390892 0 0 0-0.954167 4.994468c-0.119271 5.73991-1.490886 10.257294-7.454429 13.134704-3.220313 1.490886-2.027605 7.379885 0.596354 9.765302a19.247336 19.247336 0 0 1 4.770835 7.454429c0.954167 2.981772 0.834896 6.440627 1.490886 11.569273 7.454429-8.110419 13.83542-14.551045 24.211985-9.303127 0.477083 0.238542 1.908334-0.700716 2.504688-1.416342a2.22142 2.22142 0 0 0-0.477083-2.266146 19.590239 19.590239 0 0 0-3.339584-0.954167c-0.357813-2.74323-0.715625-4.547202-0.954167-6.455535a9.377672 9.377672 0 0 1-0.238542-3.578126c2.027605-4.398113-0.596354-10.361656-4.770835-12.40417z m69.05783-38.76303a369.143323 369.143323 0 0 0-77.526061 10.853648c-10.436201 2.638868-20.75313 5.725001-31.010424 8.602411a12.13581 12.13581 0 0 1-2.623959 1.654883 325.341098 325.341098 0 0 0-72.158873 36.258343c-5.725001 3.831576-9.780211 10.615107-15.743754 13.417972-8.826044 4.055209-15.863025 10.436201-22.780735 16.399744-13.417972 11.569274-25.523965 25.046881-37.451051 38.285947-7.275523 8.110419-13.417972 17.294275-20.63386 26.835945 8.587502 3.578126 11.330732-2.266146 14.312504-6.440627 3.220313-4.398113 5.367189-9.646031 8.110419-14.670316 0 0 0.954167 0.715625 2.146875 1.490885a358.796576 358.796576 0 0 1 79.434396-71.323976c7.454429-4.890105 17.294275-6.679168 21.826568-15.743754 0.238542-0.357813 1.490886-0.119271 2.266146-0.238542 1.490886-0.119271 3.220313 0.357813 4.472657-0.238542 8.826044-3.935939 17.771359-7.976239 26.358861-12.284898 2.266146-1.1778 3.935939-3.578126 6.440627-5.963544a4.681381 4.681381 0 0 0 1.669792 0.357813h0.477083a2.027605 2.027605 0 0 0 0.834896-0.119271c0.119271 0 0.238542-0.119271 0.477084-0.238542s0.357813-0.238542 0.596354-0.357812 0.119271-0.238542 0.238542-0.342904 0.357813-0.372721 0.477083-0.611263v-0.104362a14.595772 14.595772 0 0 0 0.954167-5.963543 24.137441 24.137441 0 0 0 7.752606 3.935938c0.357813 0.104362 0.715625 0 1.073438 0.104362a14.804496 14.804496 0 0 0 3.220314 0.357813 17.458273 17.458273 0 0 0 4.651563-0.834896 322.940772 322.940772 0 0 1 86.471376-14.774679c4.472657-0.13418 9.064586-0.477083 13.596879-0.849804-0.357813-5.48646-2.623959-7.454429-7.871877-7.454429zM506.090857 145.793722c-0.954167 8.811135-2.027605 15.490303-11.569274 16.086658 7.156252 3.697397 12.046357 8.006057 10.734378 16.817191 5.48646-6.306447 11.450003-8.34896 19.381516-5.247918-5.128647-7.022072-4.472657-13.417972 0.596354-20.037505-8.110419 2.74323-13.716149-0.119271-19.083338-7.618426z m-10.794013 646.403354c0.238542 6.067905 8.468231 10.719469 18.486984 11.196553-4.472657-7.633335-12.642712-6.559898-18.486984-11.196553z m-83.608875 10.719469c4.17448 1.207617 8.22969 2.400326 12.404169 3.578126a17.801176 17.801176 0 0 0 0.596355-2.370508c-4.17448-1.207617-8.34896-2.266146-12.523441-3.473764a19.381515 19.381515 0 0 0-0.477083 2.266146z m-151.235455-254.941471c0.596354-13.417972-8.706773-22.900006-22.06511-22.080018a60.216877 60.216877 0 0 0-15.1474 3.220313c-17.055734 5.963543-23.257818 28.98282-11.688545 43.056782a18.129171 18.129171 0 0 0 8.587503 5.337371c17.532817 5.009376 39.597927-11.450003 40.253916-29.683536zM243.39678 685.837284c2.027605 0.477083 4.651564 2.027605 5.844272 1.311979 6.202085-3.816668 15.743754 0.119271 19.560422-8.706773 0.119271-0.119271 0.715625 0 1.192709-0.119271 2.623959 0 2.623959 0 3.578126-4.278842-9.303127 2.60905-17.771359 4.770835-26.12032 7.454429-1.669792 0.357813-2.623959 2.74323-4.055209 4.293751z m-57.727098 12.642711c-2.504688-8.587502-4.890105-16.57865-7.752606-26.478131 0.119271 6.91771 0.238542 11.807816 0.357812 16.712829-0.596354-33.515113-15.385941-63.57137-22.363286-95.55087-2.266146 0.834896-3.339584 1.192709-6.917711 2.504688 0.715625-6.798439 1.192709-11.792907 1.669793-16.817192a10.167841 10.167841 0 0 0-0.238542-3.816668c-4.17448-14.774678-8.34896-29.579174-12.881253-44.24949-0.596354-1.789063-3.578126-4.293751-5.009377-3.935938-2.981772 0.611263-3.339584 3.115951-2.266146 6.440626 4.055209 13.239066 7.633335 26.597403 11.569274 39.955739 2.266146 7.648244 7.454429 14.431775 5.009376 23.496361q-15.92266-48.483606-31.606779-96.013046c5.605731 71.458156 33.1573 137.534215 53.314076 205.399336 0.596354 2.131967 2.385417 3.92103 3.935939 6.440627 0.834896-6.202085-2.981772-12.165628 2.743229-18.263351 2.027605 5.009376 3.458855 8.945315 5.247918 13.417972 6.440627-2.74323 12.642712-5.48646 19.083339-8.229689 0.119271 0.253451 0.238542 0.969076 0.477083 1.789063 2.981772-0.954167 5.844272-1.789063 8.348961-2.623959-1.371615-1.878516-2.564324-3.369402-3.876304-5.069012-5.844272 1.490886-12.046357 3.115951-18.844796 4.890105zM124.960812 496.792965c-0.238542 5.725001-0.477083 11.450003-0.715625 17.294275H125.914979c2.385417-20.872401-3.458855-40.432823-10.138023-60.097606-2.266146-0.13418-4.472657-0.253451-7.752606-0.372722l10.734377 37.928135c5.605731-2.027605 6.321356 1.073438 6.202085 5.247918z m39.95574-65.390251a20.738221 20.738221 0 0 0-1.490886-1.789063c-3.816668 1.192709-7.633335 2.400326-12.284899 3.816668 2.027605 2.042514 3.339584 3.458855 4.055209 4.17448 4.17448-2.60905 7.036981-4.472657 9.780211-6.202085z m299.012055 380.861685c-2.385417-21.588026-2.504688-21.826568-15.505212-25.762506 1.789063 4.651564 3.339584 8.706773 5.128647 13.417972-2.623959 1.669792-5.367189 3.339584-8.110419 5.024285-1.967969-8.274416-3.816668-15.728845-5.605731-23.332363a4.770835 4.770835 0 0 0-1.789062-2.266146c-9.064586-6.202085-18.129171-12.40417-27.55157-18.725526-1.490886 2.638868-2.623959 4.770835-3.697397 6.79844-1.789063-1.1778-3.220313-2.027605-4.293751-2.74323 1.073438-2.266146 2.027605-4.636655 3.101043-6.91771-0.357813-0.223633-0.715625-0.357813-1.192709-0.596355-0.715625 0.954167-1.490886 1.789063-2.027605 2.638868-1.073438-2.74323-1.31198-6.336265-3.220313-8.125327-8.945315-8.110419-18.248442-15.728845-27.67084-23.615631-2.862501 3.339584-5.605731 6.559898-8.826044 10.257294 1.908334-13.58197-1.669792-24.927611-13.119795-32.90385-0.357813-0.253451-0.357813-0.730534-0.715626-1.088346-1.669792-1.893425-4.055209-5.725001-5.128647-5.48646-5.48646 1.803972-4.472657-2.862501-5.963543-5.247918-1.669792-2.74323-2.981772-5.725001-4.770834-8.334052-4.17448-5.859181-8.706773-11.584183-13.000525-17.413546 6.440627-4.472657 10.853649-3.831576 14.551046 2.504688 2.385417 4.040301 5.725001 7.454429 8.587502 11.196553a14.237959 14.237959 0 0 1 1.908334-0.954167c1.192709-7.633335-8.22969-10.853649-9.303128-18.009901 9.780211-2.74323 19.560422-5.605731 29.221362-8.34896 3.816668-1.058529 5.725001-2.74323 3.816668-6.91771-0.715625 0-1.31198-0.238542-1.908334 0-18.486984 5.247918-36.973968 10.436201-55.460952 15.863025-1.789063 0.477083-3.339584 3.339584-3.935938 5.367189-0.715625 2.385417-0.357813 5.128647-0.477084 7.767515h1.192709c0.238542-2.266146 0.477083-4.472657 0.596354-6.813349 0.596354 0 1.192709-0.119271 1.789063-0.11927 0.834896 6.216994 2.266146 12.419079 2.504688 18.621163 0.357813 9.049677 5.247918 14.908858 11.688545 20.872401 0.119271-1.088347 0.238542-1.923243 0.238542-2.027604v0.104362c2.981772 4.666473 6.321356 9.899482 9.66094 15.26667 0.477083-0.238542 0.954167-0.596354 1.490886-0.834896-0.119271-2.012696-0.119271-4.17448-0.238542-6.202085 0.596354 0 1.31198-0.104362 1.908334-0.104362 0.715625 3.801759 1.490886 7.618426 2.146875 11.688545 0.954167-1.56543 1.789063-2.74323 2.504688-3.950847 1.490886 2.74323 1.192709 5.367189 2.146876 7.454429a16.205929 16.205929 0 0 0 4.651564 5.963543c17.89063 15.281579 35.661988 30.652612 53.791159 45.68074 2.385417 2.027605 4.770835 5.963543 8.945315 2.504689 0.715625 0.954167 1.31198 2.027605 1.908334 2.877409 1.073438-1.803972 2.146876-3.697397 4.055209-7.290431 1.490886 3.935939 2.981772 6.202085 2.862501 8.468231-0.238542 5.247918 2.623959 7.633335 6.679168 9.899482 8.22969 4.651564 16.101567 10.018753 24.331256 14.565954 4.293751 2.370508 9.183857 3.935939 14.670316 6.202085-0.596354-3.950847-0.954167-6.813348-1.490885-10.510745a31.666414 31.666414 0 0 1-1.073438 3.578126z m510.95638-145.510453c13.954691-18.129171 24.927611-37.913226 35.065634-58.308544 0.954167-1.803972 0.834896-4.17448 1.192708-6.202085l-2.385417-0.372721a8.676955 8.676955 0 0 0-1.669792 1.908334 373.407256 373.407256 0 0 1-56.415118 85.174305c-4.472657 5.009376-8.34896 10.600198-13.417973 15.01322-5.725001 4.905014-6.082814 5.009376-0.357812 10.018753a87.008095 87.008095 0 0 1 5.367189-7.991148c3.458855-4.055209 7.156252-7.991148 10.853648-11.688545 0.715625-0.715625 2.504688-0.477083 3.458855-1.073438a8.244598 8.244598 0 0 0 3.220314-2.8625c0.596354-1.31198-0.238542-3.578126 0.477083-4.636655 4.770835-6.574806 9.780211-12.776891 14.551045-18.978976z m-41.029177-31.949683c1.669792-2.638868 3.220313-5.262827 4.770834-7.886786-2.146876-1.192709-4.055209-2.146876-6.202085-3.339584-4.472657 5.501369-4.472657 5.605731 1.490886 11.22637z m-192.860987-47.708345c3.578126-0.13418 7.275523 0.477083 10.615107-0.477084 28.505736-7.886786 56.892202-15.997205 85.457574-24.01817 2.027605-0.611263 3.697397-2.266146 5.48646-3.473764a13.820511 13.820511 0 0 1-0.954167-1.774154q-50.332304 14.193233-100.604974 28.654825a1.69961 1.69961 0 0 0 0 1.088347zM1141.208206 209.350183c-4.651564 2.981772-6.679168 5.128647-5.247918 10.018753 14.312504 49.497408 28.32683 99.128997 42.341157 148.730767q6.26172 22.005474 12.523441 44.368761c-2.862501 0.969076-5.128647 1.789063-7.275523 2.519597-3.101042 0.939258-8.468231 1.297071-8.945315 2.847592-1.490886 5.963543-5.605731 4.547202-9.422398 4.890106-0.834896 0.13418-1.669792 0.954167-2.504688 1.207617a67.4924 67.4924 0 0 1-9.541669 2.251238c-3.458855 0.477083-7.275523-0.477083-10.615107 0.477083-27.074486 7.454429-54.029701 15.266671-80.984917 22.900006-35.90053 10.257294-71.80106 20.395318-107.582319 30.667521-11.688545 3.339584-23.377089 6.78353-35.065634 10.123114-0.119271 0.611263-0.357813 1.192709-0.477083 1.908334 1.908334 0.954167 4.055209 3.101042 5.605731 2.74323 13.83542-3.458855 27.432299-7.454429 41.148447-11.211461 7.275523-2.012696 14.551045-4.040301 22.542194-6.321356a39.061208 39.061208 0 0 1-0.238542 5.128647 342.799371 342.799371 0 0 1-38.285947 113.202959 27.969018 27.969018 0 0 0-2.266147 6.902801c-4.472657 6.082814-8.34896 10.987828-11.927086 15.863025 1.908334 2.385417 3.339584 4.17448 5.367189 6.679168 4.17448-6.440627 7.871877-11.927086 11.211461-17.75645a340.577951 340.577951 0 0 0 42.221886-115.230563c0.477083-2.74323-0.834896-5.844272-1.31198-9.288218 0.715625-0.611263 2.862501-2.400326 5.367189-4.472658h-5.426824c-0.119271-0.596354-0.119271-1.192709-0.238542-1.774154 17.413546-5.262827 34.946363-10.510745 53.433347-16.116475-2.385417 38.285947-10.972919 73.828665-23.49636 108.834663 1.908334-0.238542 2.981772-0.238542 4.055209-0.342904-0.238542 0.238542-0.477083 0.342904-0.715625 0.581445a13.880147 13.880147 0 0 0-2.146875 1.684701 1.103255 1.103255 0 0 0-0.477084 0.581446c-0.596354 0.715625-1.31198 1.31198-1.789063 2.027605a0.119271 0.119271 0 0 1-0.119271 0.11927c-3.935939 5.605731-5.128647 12.761982-8.945315 19.381516a8.811135 8.811135 0 0 0 2.266147-1.192709l0.834896-0.849805a14.297595 14.297595 0 0 0 1.490886-1.311979 20.395318 20.395318 0 0 0 1.311979-1.669792 11.658727 11.658727 0 0 0 0.954167-1.1778 23.198183 23.198183 0 0 0 1.669792-2.74323c0.119271-0.238542 0.238542-0.372721 0.357813-0.611263a49.467591 49.467591 0 0 0 5.48646-14.908858 62.199755 62.199755 0 0 0 3.935938-8.706773c1.31198-5.128647 1.490886-10.615107 2.981772-15.624483 2.146876-7.454429 6.082814-14.297595 7.454429-21.707298 3.697397-19.664784 6.440627-39.463747 9.541669-59.277619 0.596354-3.458855 6.082814-9.422398 7.752606-7.856968s2.027605 4.994467 2.146875 7.737697a139.0251 139.0251 0 0 1-0.477083 13.9696c2.981772-0.357813 4.890105-0.596354 6.679168-0.969076-1.31198 2.504688-2.504688 4.651564-3.935938 7.156252-0.954167-0.357813-2.266146-0.715625-4.890106-1.669792 0.238542 6.91771 0.596354 12.881253 0.834896 19.381516 0 0-2.74323 0.596354-2.981771 1.669792-1.908334 7.454429-3.935939 15.043038 5.009376 21.349484a33.858016 33.858016 0 0 0-6.440627 1.789063c-1.490886 0.849805-3.458855 2.027605-3.935938 3.458855-4.890105 14.908858-9.422398 30.056258-14.312504 44.965116-1.31198 3.935939-2.623959 7.275523 0.954167 10.615107 0.238542 0.238542-0.119271 1.073438-0.238541 2.266146-1.490886-1.297071-2.385417-2.146876-3.458856-3.086133-6.798439 13.716149-13.417972 27.298119-20.276046 40.656455-0.954167 1.908334-3.220313 2.981772-5.247918 4.890106 1.073438 5.605731-3.339584 10.152932-6.440627 15.26667a393.59385 393.59385 0 0 1-98.04065 110.206278c-5.128647 3.950847-10.018753 5.128647-15.743754 1.073438 5.844272-5.113738 11.450003-10.138023 17.175004-15.1474 8.22969-7.275523 16.57865-14.536137 24.689069-22.06511 1.789063-1.654883 2.623959-4.472657 3.816668-6.664259a17.75645 17.75645 0 0 1-1.789063-1.192709 118.838507 118.838507 0 0 0-10.018753 7.260614c-11.807816 10.257294-23.49636 20.768039-35.304175 30.891154-3.339584 2.862501-4.293751 1.326888-3.935939-2.74323 0.119271-1.073438-2.74323-3.339584-4.293751-3.339584-7.633335 0-15.385941 0.596354-23.49636 1.073438 5.009376 2.638868 9.541669 5.128647 14.670316 7.991147l3.101043-3.101042c0.119271 0.596354 0.238542 1.073438 0.357812 1.684701 2.266146 0.342904 4.651564 0.700716 7.991148 1.297071a34.290373 34.290373 0 0 1-4.770834 4.666472c-8.706773 5.605731-17.473182 11.166735-26.418497 16.205929-1.669792 0.954167-4.472657 0-6.679168 0a11.554365 11.554365 0 0 0-1.31198 0.357812c0.596354 1.073438 1.073438 2.266146 1.490886 3.101043-9.66094 5.009376-19.083338 10.436201-28.98282 14.670316-14.312504 6.082814-28.98282 11.211461-43.533865 16.57865-4.651564 1.684701-8.468231-0.238542-10.257294-5.128647-1.669792 5.844272-1.789063 5.963543-8.468232 1.490886-3.816668 2.400326-7.633335 4.651564-11.450002 6.91771-0.357813-0.581445-0.834896-1.297071-1.192709-1.908334 1.31198-1.490886 2.623959-3.101042 5.009376-5.844272-8.945315 3.101042-17.652088-2.862501-26.001048 5.725001 4.651564 0.238542 7.752606 0.357813 9.780211 0.357813 2.623959 6.91771 9.780211 0.715625 12.284899 5.486459a4.69629 4.69629 0 0 1-1.490886 0.954167c-8.706773 1.789063-17.413546 3.831576-26.23959 5.128647-6.559898 1.073438-13.417972 2.385417-19.918234 1.789063s-13.000524-2.146876-19.381516 1.192709c-2.504688 1.31198-5.247918 2.74323-7.871877 2.74323-9.780211 0-19.560422-0.596354-29.340632-1.058529a15.863025 15.863025 0 0 0-0.834896 1.490886c1.789063 0.969076 3.458855 2.74323 5.247918 2.74323 11.450003 0.477083 22.900006 0.477083 34.290373 0.969075 5.605731 0.238542 11.569274 0.104362 16.57865 2.251238 6.679168 2.862501 12.881253 0.834896 19.202609 0.357813 1.669792-0.104362 3.339584 0.13418 5.128647 0.134179v2.131967c-28.863549 1.908334-57.727098 6.440627-86.829188 2.623959a377.954458 377.954458 0 0 1-87.067731-22.363287c-0.119271 2.981772-0.238542 4.994467-0.357812 7.856968-8.587502-2.623959-16.697921-5.009376-24.569798-7.275522-0.596354 7.156252-1.192709 13.596878-1.789063 21.349484 3.101042 1.073438 8.468231 2.638868 13.417972 4.666473 3.220313 1.297071 4.651564 0.342904 5.60573-2.638868a7.30534 7.30534 0 0 1 1.669793 0c0.238542 1.669792 0.596354 3.354493 0.715625 4.472657 2.623959-0.119271 4.890105-0.715625 6.798439-0.119271 5.009376 1.56543 9.899482 3.578126 14.789587 5.501369 0.238542-0.715625 0.596354-1.326888 0.834896-2.042514-5.247918-2.370508-10.436201-4.770835-16.697921-7.752606 2.623959-1.073438 4.770835-2.847592 6.559898-2.504688 2.027605 0.372721 3.697397 2.504688 5.367189 3.935939 0.238542-2.385417 0.357813-4.040301 0.477083-5.725002 1.490886 0.238542 3.101042 0.357813 4.651564 0.730534 1.789063 0.477083 3.578126 1.297071 5.247918 1.893425 0.357813 1.908334 0.596354 3.816668 1.192708 7.290432 2.504688-2.981772 3.935939-4.770835 6.202085-7.454429-0.119271 3.220313 0.238542 6.321356-0.357812 6.559897-6.082814 2.042514 1.31198 6.202085-1.490886 8.468232 2.385417 0.715625 4.651564 1.803972 7.036981 2.281055 2.981772 0.462175 6.082814 0.342904 8.945315 0.819987a420.1018 420.1018 0 0 0 85.63648 5.143556 481.287753 481.287753 0 0 0 88.498981-12.881253c30.771883-7.454429 59.516161-21.349485 91.122939-26.358861 9.541669-1.490886 18.367713-7.991148 27.193757-12.747074 2.266146-1.207617 3.220313-4.905014 5.128647-8.125327 2.623959-1.073438 9.064586-1.908334 9.54167-4.174481 1.31198-5.844272 5.725001-7.036981 9.422398-9.541669 6.202085-4.278842 12.046357-9.064586 18.606254-12.642711 5.367189-2.847592 9.780211-8.945315 17.294276-6.544989 0.119271 0 0.357813-0.730534 0.715625-1.326888-1.490886-0.477083-2.981772-0.834896-4.651564-1.31198 4.472657-4.055209 9.303127-6.679168 13.000524-11.211461 6.679168-8.110419 16.399744-12.985615 23.257819-21.215305 6.082814-7.290432 13.239066-13.731058 19.083338-21.110943 11.330732-14.312504 21.945839-29.117 33.276571-43.429503 4.472657-5.725001 5.844272-14.178324 14.193233-16.921554 1.192709-0.372721 1.669792-3.220313 2.146875-5.009376 0.715625-2.519597 0.596354-5.501369 1.669792-7.767515 9.183857-18.964067 19.560422-37.272145 25.762507-57.607827 2.74323-9.064586 7.275523-17.771359 8.945315-26.955215s8.587502-18.129171 3.101042-28.744278c-9.66094 26.835944-16.101567 54.998777-30.652612 79.792207 2.385417-7.454429 5.48646-14.908858 8.110419-22.363287 0.834896-2.504688-0.477083-6.067905 0.834896-8.229689a59.26271 59.26271 0 0 0 7.871877-16.936463c3.339584-12.747074 6.679168-25.523965 9.66094-38.405218 0.715625-3.101042 0.357813-6.440627 0.477083-10.018752a35.781259 35.781259 0 0 0 2.862501-7.156252c1.789063-12.165628 3.220313-24.450527 4.770835-36.735426l1.908333-16.399744L1200.843638 416.285132c-20.276047-69.05783-39.955739-137.638577-59.635432-206.934949zM195.211351 427.496593c-0.954167-2.385417-1.490886-3.92103-2.504688-6.202085-8.706773 2.504688-16.817192 4.890105-25.523965 7.454429 1.490886 2.251238 2.266146 3.563217 2.862501 4.472658 8.706773-1.893425 16.817192-3.816668 25.166152-5.725002z m308.61336 384.648535c-5.963543-2.370508-11.688545-5.247918-17.771359-7.454429-3.101042-1.088347-6.679168-1.088347-10.4362-1.490885 0.119271 3.935939 0.238542 6.082814 0.357812 8.110418l-1.073438 0.357813a35.602353 35.602353 0 0 0-1.669792-7.871877 40.253916 40.253916 0 0 0-4.472657-6.559898 76.139538 76.139538 0 0 0-0.119271 15.624484 13.731058 13.731058 0 0 0 15.743754 12.776891c1.490886-4.785743 2.862501-9.079494 4.17448-13.253975 0.596354 0 1.31198-0.119271 1.908334-0.119271 0.715625 4.055209 1.31198 8.110419 1.908334 11.450003 0.834896-0.477083 2.266146-1.297071 4.651564-2.74323 0-0.238542 0.238542-2.146876 0.834896-5.844272 1.073438 5.128647 1.669792 8.34896 2.266146 11.569274 0.357813-2.266146 0.715625-4.472657 1.192709-6.544989h1.073437c0.596354 1.893425 1.192709 3.92103 2.266147 7.022072-0.119271-4.472657-0.238542-7.454429-0.238542-10.719469 0.596354-0.13418 1.31198-0.372721 1.908334-0.477083 1.490886 4.040301 3.220313 7.976239 4.770835 11.927086 3.220313-10.630016 2.623959-11.927086-7.156252-15.758663z m-95.714868-145.182458c-1.073438 5.605731 0 10.436201 5.009376 14.551045 14.670316 11.688545 29.102091 23.734902 43.772407 35.661988a26.835944 26.835944 0 0 0 5.009376 2.74323c0.834896-3.101042 1.31198-5.247918 1.490886-6.321356-18.844796-15.863025-36.973968-31.114787-55.341681-46.634907z m46.634907 105.450352c-0.477083 6.425718 4.293751 6.78353 7.871877 8.945315 0.238542-5.262827 0.238542-5.262827-7.871877-8.945315z m-35.542717-24.092715a34.081649 34.081649 0 0 0-3.578126-1.923242c-0.238542 2.623959 0.119271 5.143556 1.490886 6.082814 11.450003 8.006057 23.019277 15.758663 34.58855 23.49636l1.789063-1.774154c-1.31198-1.923243-2.266146-4.30866-4.055209-5.48646-9.899482-6.932619-20.037505-13.596878-30.175529-20.395318z m59.516161-18.129171c3.220313-7.171161-2.266146-9.556578-6.91771-12.061266-2.146876 7.752606-1.490886 8.945315 6.91771 12.061266z m11.450003-116.423272a12.866344 12.866344 0 0 1-1.669792-1.192708c-16.936463 4.890105-33.872925 9.556578-50.690117 14.670316-2.146876 0.596354-3.578126 3.458855-6.440627 6.202085 3.101042 0.119271 4.472657 0.477083 5.605731 0.119271 16.817192-4.651564 33.515113-9.303127 50.213033-14.416866 1.490886-0.253451 2.027605-3.473764 2.981772-5.382098z m160.657853 1.490886c26.597403-7.454429 53.314076-15.1474 81.581271-23.138547-6.321356-2.489779-76.810436 16.817192-81.998719 21.125851 0.119271 0.715625 0.357813 1.297071 0.477084 2.012696z m-245.996156 21.110943c-3.697397 1.207617-7.454429 2.385417-11.450003 3.712306l2.504688 4.994467c11.09219-2.981772 11.09219-2.981772 8.945315-8.706773z m95.893774 105.852892c0.119271-3.220313 0.238542-7.171161-1.669792-8.468232-5.367189-3.831576-11.569274-6.574806-18.129171-10.138023-0.119271 14.416866 12.165628 13.58197 19.798963 18.606255z m-110.623726-100.873333c-14.670316 1.490886-18.486984 3.816668-17.652088 9.541669 5.247918-0.119271 10.436201-0.119271 15.863025-0.238542a16.489197 16.489197 0 0 1-0.238541-4.159571 28.580281 28.580281 0 0 1 2.027604-5.143556z m-19.083338 65.867334c-0.834896 10.436201 9.064586 12.508532 14.431775 18.233533-0.357813-9.422398-9.541669-12.046357-14.431775-18.233533z m36.019801 36.481976c1.31198-7.454429-6.202085-7.976239-8.706773-12.284899-4.055209 3.935939-1.908334 6.91771 8.706773 12.284899z m257.267253-179.979734c19.560422 5.48646 35.304176-6.574806 53.91043-11.927086-10.436201-1.326888-46.754179 7.141343-53.91043 11.927086z m0 0" fill="#d81e06" p-id="5439"></path><path d="M491.763445 410.917943q-28.625007 7.663153-50.049036 13.626696t-36.452158 10.302021q-15.028129 4.368295-24.137441 7.111525c-6.052996 1.848698-10.436201 3.279949-13.209248 4.30866l-3.950848-14.715043q9.586396-1.282162 28.610099-5.725001t43.012055-10.883466q24.003261-6.425718 40.939724-11.718363t25.956322-8.796226a77.198067 77.198067 0 0 0 1.282161 8.840953q0.805078 3.771941 2.415235 9.824937l14.908858 55.848582q1.56543 5.859181 3.220314 10.808922t3.861394 9.988935l-14.312504 3.831577-5.516277-20.559316-107.0456 28.684643L416.637709 558.754179q2.22142 8.274416 6.246812 10.4362t13.820511 0c6.798439-1.490886 12.732165-2.907227 17.816086-4.114845s10.197659-2.519597 15.371032-3.90612 10.928193-2.981772 17.279366-4.845379 14.133597-4.144663 23.332363-6.902802a146.86716 146.86716 0 0 0 18.993885-6.932618 28.490828 28.490828 0 0 0 10.331839-7.454429 16.906645 16.906645 0 0 0 3.742123-9.422399 51.018112 51.018112 0 0 0-0.924349-12.717256 53.403529 53.403529 0 0 0 7.946421 1.490886 30.309708 30.309708 0 0 0 7.454429-0.372721 89.736416 89.736416 0 0 1-0.745443 15.743754 28.639916 28.639916 0 0 1-4.472657 11.927086 32.158407 32.158407 0 0 1-10.287112 9.228583 96.6094 96.6094 0 0 1-18.054627 7.976239c-2.519597 0.819987-5.963543 1.863607-10.078388 3.13086s-8.945315 2.60905-14.163415 4.010483l-16.638286 4.472658q-8.766408 2.3556-17.562634 4.591928t-17.011007 4.234116q-8.22969 1.982878-14.729952 3.51849a49.825403 49.825403 0 0 1-12.732165 1.684701 15.594665 15.594665 0 0 1-8.155145-2.251238 14.759769 14.759769 0 0 1-5.143556-6.291538 64.406266 64.406266 0 0 1-3.78685-10.868557l-16.399744-61.48413q-2.758139-10.287112-4.860287-16.966281t-3.712306-11.002737c3.145769-0.104362 5.680275-0.283268 7.633335-0.52181s4.293751-0.641081 7.022073-1.237435c2.459962-0.506901 4.159571-0.208724 5.098829 0.90944s0.372721 2.594141-1.714519 4.472658c-0.462175 0.417448-0.611263 1.595248-0.447265 3.578126a68.789471 68.789471 0 0 0 1.610156 8.855861l107.060509-28.684643zM641.105475 367.443713q-4.621746-4.383204-9.154039-7.916603t-11.927086-8.483141l10.003843-10.257294c2.638868 2.325782 4.96465 4.398113 6.962437 6.246812s3.891212 3.637761 5.665366 5.397006 3.503582 3.563217 5.233009 5.397007 3.607944 3.935939 5.665366 6.26172q14.908858-3.980665 25.181061-6.843166l17.681906-4.964649c4.96465-1.401433 9.258401-2.653777 12.92598-3.78685s7.275523-2.295964 10.823831-3.548308l10.316929 38.50958-12.433987 3.548308-7.18607-26.835944-127.828548 34.290373 7.245705 27.01485-12.105993 3.235223-10.4362-38.91212q5.546095-1.04362 10.943102-2.281055t13.31361-3.13086q7.916604-1.893425 19.515695-5.009376z m10.212568 83.340516q2.683594 12.448896 3.935938 21.960748a80.03075 80.03075 0 0 1 0.596354 17.130278 47.1269 47.1269 0 0 1-3.354493 14.073962 53.373711 53.373711 0 0 1-7.812241 12.7918 103.825287 103.825287 0 0 1-12.92598 13.075068q-7.812242 6.738804-18.293169 15.162309a24.077806 24.077806 0 0 0-5.471551-5.87409 29.146817 29.146817 0 0 0-7.856968-3.518491 228.269524 228.269524 0 0 0 26.478132-18.546619 52.836993 52.836993 0 0 0 14.014326-17.040825 39.314658 39.314658 0 0 0 3.622853-19.545512 135.059344 135.059344 0 0 0-4.770835-26.284317q-14.267777 4.040301-25.479238 7.364976t-20.723312 6.53008l-3.39922-12.806709q13.984509-2.653777 31.696232-7.096617t42.922602-11.166734q12.702347-3.39922 23.064003-6.291538t19.06843-5.426825q8.721682-2.549415 16.101566-4.860287t14.118689-4.472658l3.399219 12.687438q-9.884573 1.789063-20.872401 4.472658t-25.345058 6.440626l12.583076 46.977812a20.410227 20.410227 0 0 0 2.847592 6.589715 8.184963 8.184963 0 0 0 4.94974 3.101042 23.183274 23.183274 0 0 0 8.319143 0 113.993128 113.993128 0 0 0 13.164522-2.892318 73.664667 73.664667 0 0 0 11.777998-4.010483 16.161202 16.161202 0 0 0 6.380991-4.845379 13.17943 13.17943 0 0 0 2.310873-7.096616 69.818182 69.818182 0 0 0-0.417448-10.808922 23.645449 23.645449 0 0 0 6.574806 3.533399 31.517326 31.517326 0 0 0 7.842059 1.04362 88.51389 88.51389 0 0 1-0.954167 12.568168 17.23464 17.23464 0 0 1-3.786849 8.468231 24.182168 24.182168 0 0 1-8.423505 5.963543 109.281929 109.281929 0 0 1-14.908858 5.292645q-14.22305 4.234116-22.646555 5.844272a36.496884 36.496884 0 0 1-13.089978 0.700716 9.332945 9.332945 0 0 1-6.694077-4.368295 38.956846 38.956846 0 0 1-3.563217-9.303127L682.015381 442.494904z m55.34168-50.690117q-9.541669 1.490886-20.872401 4.204298t-28.505736 7.320249q-17.353911 4.621746-29.653719 8.259508t-21.364393 7.051889l-3.354493-12.508531q9.482034-1.669792 21.901112-4.562111t29.534448-7.454429q8.676955-2.325782 15.699027-4.323569c4.69629-1.326888 8.945315-2.579232 12.92598-3.78685s7.543882-2.340691 10.853649-3.443946 6.470444-2.191602 9.482033-3.294857zM806.727978 389.657912q4.472657 17.398637 7.186069 30.816609a231.46002 231.46002 0 0 1 3.771942 24.450527 138.443655 138.443655 0 0 1 0.417448 20.946945 144.854464 144.854464 0 0 1-2.74323 20.410227 22.363287 22.363287 0 0 0-8.050784-3.458855 30.816609 30.816609 0 0 0-8.363869-0.566537 96.907577 96.907577 0 0 0 5.009376-22.363287 116.57236 116.57236 0 0 0-1.013802-27.596296 352.669035 352.669035 0 0 0-7.991148-38.271038q-5.769728-22.363287-15.728845-54.670782 2.728321-0.298177 9.899482-1.789063t18.129171-4.159571q10.958011-2.60905 25.106517-6.291539t30.876245-8.170054Q857.939905 303.499621 854.958133 295.568109a115.111292 115.111292 0 0 0-5.233009-11.927086c3.13086-0.119271 5.859181-0.313086 8.155146-0.566537s4.83047-0.685807 7.558791-1.267253c1.908334-0.372721 3.220313-0.178906 3.921029 0.566537s0.52181 2.057422-0.566536 3.935938a5.054103 5.054103 0 0 0-0.491993 2.176693 23.24291 23.24291 0 0 0 0.581446 4.606838q0.641081 3.175587 2.206511 8.587502t4.278842 13.984509q25.807233-6.902801 40.253916-11.211462a150.967096 150.967096 0 0 0 19.381516-6.708986l3.78685 14.118689q-2.683594 0.506901-9.40749 1.982878t-15.251761 3.548308q-8.527867 2.057422-17.89063 4.472657t-17.160095 4.472658a309.194805 309.194805 0 0 0 14.297594 35.602353 287.532235 287.532235 0 0 0 14.744861 26.835944c0.805078-2.370508 1.490886-4.69629 2.146875-6.947528s1.192709-4.472657 1.729428-6.843166c0.760352-3.086134 1.401433-6.559898 1.95306-10.4362s0.983985-7.871877 1.341798-11.927087 0.52181-8.140236 0.491992-12.240172-0.149089-7.976239-0.417448-11.658727c3.115951 0.894531 5.784637 1.490886 7.976239 1.967969a32.799488 32.799488 0 0 0 6.753713 0.566537c2.981772-0.074544 4.741017 0.491992 5.2181 1.744336s-0.283268 2.698503-2.281055 4.383205a6.380991 6.380991 0 0 0-1.729428 2.847591 53.045717 53.045717 0 0 0-1.833789 6.425718c-0.685807 2.847592-1.490886 6.515171-2.251238 10.97292s-1.729428 9.944208-2.74323 16.399743a108.924116 108.924116 0 0 1-2.892318 12.985616q-1.923243 6.902801-4.696291 14.342321 16.847009 22.497467 33.992197 30.861336a17.502999 17.502999 0 0 0 5.2181 1.729428 2.817774 2.817774 0 0 0 2.981771-2.087241 21.036399 21.036399 0 0 0 0.969076-7.722788q0-5.382098-1.118164-15.043038a23.049094 23.049094 0 0 0 7.454429 3.622853 30.071167 30.071167 0 0 0 7.871877 1.133073 153.665599 153.665599 0 0 1-1.490886 20.604042 31.308602 31.308602 0 0 1-3.712306 11.584182 8.259507 8.259507 0 0 1-6.231902 4.159572 19.038612 19.038612 0 0 1-8.945315-1.729428 69.520005 69.520005 0 0 1-11.107099-5.561004 132.823016 132.823016 0 0 1-11.49473-7.82715 127.54528 127.54528 0 0 1-10.764195-9.109312 115.931279 115.931279 0 0 1-9.198765-9.750394 322.031332 322.031332 0 0 1-14.23796 29.102091 279.526178 279.526178 0 0 1-15.53503 25.121426 31.681323 31.681323 0 0 0-15.639392-5.963543 135.432066 135.432066 0 0 0 20.350591-26.835945 240.763147 240.763147 0 0 0 16.399744-33.366024 307.271563 307.271563 0 0 1-20.276047-35.781259 352.683944 352.683944 0 0 1-15.713936-38.89721l-71.174888 19.068429q2.47487 8.408596 4.472657 15.967387t3.92103 14.62559L828.271278 372.721449q8.468231-2.251238 16.295381-4.905014a85.815386 85.815386 0 0 0 11.927087-4.83047l13.745967 66.925863q2.504688 12.493623-4.919923 19.142974t-27.298119 9.795119a31.308602 31.308602 0 0 0-2.773048-7.141343 40.388096 40.388096 0 0 0-5.307553-6.902801c6.679168-0.342904 11.927086-0.834896 15.92266-1.490886a28.07338 28.07338 0 0 0 8.945315-2.60905 6.306447 6.306447 0 0 0 3.503581-4.293751 16.817192 16.817192 0 0 0-0.283268-6.291538l-10.138023-51.525013z m106.195795-85.934658a79.24058 79.24058 0 0 0-13.417972-9.467124 177.41541 177.41541 0 0 0-17.130278-8.691865l7.320249-10.600198a179.428106 179.428106 0 0 1 16.84701 8.438414 148.805311 148.805311 0 0 1 13.924873 8.811135z" fill="#d81e06" p-id="5440"></path></svg>